<svg xmlns="http://www.w3.org/2000/svg" xmlns:xlink="http://www.w3.org/1999/xlink" viewBox="0,0,256,256" width="512px" height="512px" fill-rule="nonzero"><defs><linearGradient x1="31.445" y1="4.962" x2="31.445" y2="58" gradientUnits="userSpaceOnUse" id="color-1"><stop offset="0" stop-color="#1a6dff"></stop><stop offset="1" stop-color="#c822ff"></stop></linearGradient><linearGradient x1="28" y1="14.778" x2="28" y2="28.177" gradientUnits="userSpaceOnUse" id="color-2"><stop offset="0" stop-color="#6dc7ff"></stop><stop offset="1" stop-color="#e6abff"></stop></linearGradient></defs><g fill="#341977" fill-rule="nonzero" stroke="none" stroke-width="1" stroke-linecap="butt" stroke-linejoin="miter" stroke-miterlimit="10" stroke-dasharray="" stroke-dashoffset="0" font-family="none" font-weight="none" font-size="none" text-anchor="none" style="mix-blend-mode: normal"><path d="M0,256v-256h256v256z" id="bgRectangle"></path></g><g fill="none" fill-rule="nonzero" stroke="none" stroke-width="1" stroke-linecap="butt" stroke-linejoin="miter" stroke-miterlimit="10" stroke-dasharray="" stroke-dashoffset="0" font-family="none" font-weight="none" font-size="none" text-anchor="none" style="mix-blend-mode: normal"><g transform="scale(4,4)"><path d="M48.98,24.804c-0.872,-4.361 -2.431,-7.177 -4.631,-8.369c-0.622,-0.337 -1.236,-0.5 -1.794,-0.562c-0.956,-3.901 -3.969,-10.139 -13.479,-10.87c-3.273,-0.255 -6.126,0.687 -8.48,2.79c-6.052,5.407 -7.356,17.465 -7.596,24.172c-0.203,5.703 -0.002,22.874 0,23.035c0,1.654 1.346,3 3,3h9v-11c0,-1.654 1.346,-3 3,-3h3c1.103,0 2,0.897 2,2v12h13v-1c0,-4.808 -0.273,-10.179 -0.655,-15.338c5.733,-2.028 5.087,-9.6 3.635,-16.858zM35,56v-10c0,-2.206 -1.794,-4 -4,-4h-3c-2.757,0 -5,2.243 -5,5v9h-7c-0.552,0 -1,-0.449 -1,-1.012c-0.002,-0.172 -0.202,-17.295 -0.001,-22.953c0.229,-6.389 1.432,-17.839 6.93,-22.752c1.959,-1.75 4.249,-2.499 6.994,-2.287c11.997,0.924 12.079,11.545 12.077,11.994l-0.001,0.073l0.01,0.072c0.029,0.215 2.868,21.208 2.987,36.865zM45.185,39.585c-0.85,-10.604 -2.075,-19.833 -2.186,-20.661c-0.004,-0.146 -0.018,-0.473 -0.067,-0.93c0.165,0.056 0.334,0.125 0.51,0.225c1.121,0.63 2.652,2.352 3.577,6.978c2.025,10.121 0.537,13.279 -1.834,14.388z" fill="url(#color-1)"></path><path d="M25,15h6c3.314,0 6,2.686 6,6v3c0,1.657 -1.343,3 -3,3h-11c-2.209,0 -4,-1.791 -4,-4v-2c0,-3.314 2.686,-6 6,-6z" fill="url(#color-2)"></path></g></g></svg>