<svg xmlns="http://www.w3.org/2000/svg" xmlns:xlink="http://www.w3.org/1999/xlink" viewBox="0,0,256,256" width="512px" height="512px" fill-rule="nonzero"><defs><linearGradient x1="31.5" y1="27" x2="31.5" y2="39" gradientUnits="userSpaceOnUse" id="color-1"><stop offset="0" stop-color="#6dc7ff"></stop><stop offset="1" stop-color="#e6abff"></stop></linearGradient><linearGradient x1="31.501" y1="4" x2="31.501" y2="57.571" gradientUnits="userSpaceOnUse" id="color-2"><stop offset="0" stop-color="#1a6dff"></stop><stop offset="1" stop-color="#c822ff"></stop></linearGradient><linearGradient x1="33.5" y1="4" x2="33.5" y2="57.571" gradientUnits="userSpaceOnUse" id="color-3"><stop offset="0" stop-color="#1a6dff"></stop><stop offset="1" stop-color="#c822ff"></stop></linearGradient><linearGradient x1="32" y1="4" x2="32" y2="57.571" gradientUnits="userSpaceOnUse" id="color-4"><stop offset="0" stop-color="#1a6dff"></stop><stop offset="1" stop-color="#c822ff"></stop></linearGradient></defs><g fill="#341977" fill-rule="nonzero" stroke="none" stroke-width="1" stroke-linecap="butt" stroke-linejoin="miter" stroke-miterlimit="10" stroke-dasharray="" stroke-dashoffset="0" font-family="none" font-weight="none" font-size="none" text-anchor="none" style="mix-blend-mode: normal"><path d="M0,256v-256h256v256z" id="bgRectangle"></path></g><g fill="none" fill-rule="nonzero" stroke="none" stroke-width="1" stroke-linecap="butt" stroke-linejoin="miter" stroke-miterlimit="10" stroke-dasharray="" stroke-dashoffset="0" font-family="none" font-weight="none" font-size="none" text-anchor="none" style="mix-blend-mode: normal"><g transform="scale(4,4)"><path d="M31.5,27c-0.949,0 -1.826,0.396 -2.551,1.063c0.383,0.524 0.622,1.194 0.622,1.937c0,1.657 -1.151,3 -2.571,3c0,3.313 2.015,6 4.5,6c2.485,0 4.5,-2.687 4.5,-6c0,-3.313 -2.015,-6 -4.5,-6z" fill="url(#color-1)"></path><path d="M21.111,40.941c1.721,2.167 4.554,3.485 8.421,3.92c0.847,0.095 1.662,0.142 2.444,0.142c3.13,0 5.738,-0.755 7.775,-2.256c3.186,-2.346 4.821,-6.664 4.07,-10.744c-0.715,-3.879 -3.472,-7.293 -7.195,-8.907c-3.993,-1.731 -8.893,-1.394 -12.483,0.861c-3.175,1.995 -5.146,5.903 -5.143,10.2c0,0.346 0.013,0.689 0.039,1.033c0.177,2.279 0.894,4.268 2.072,5.751zM21,34.155c-0.002,-3.613 1.61,-6.873 4.207,-8.505c1.749,-1.099 3.867,-1.659 5.998,-1.659c1.583,0 3.174,0.31 4.625,0.938c3.073,1.333 5.438,4.252 6.024,7.436c0.606,3.292 -0.747,6.898 -3.29,8.771c-2.127,1.567 -5.09,2.156 -8.811,1.736c-3.317,-0.372 -5.699,-1.44 -7.077,-3.176c-1.174,-1.479 -1.542,-3.351 -1.645,-4.659c-0.02,-0.291 -0.031,-0.585 -0.031,-0.882z" fill="url(#color-2)"></path><path d="M46.231,42.36c-3.875,4.661 -11.064,5.64 -16.413,5.64c-6.182,0 -9.237,-1.816 -9.291,-1.85c-0.467,-0.289 -1.082,-0.148 -1.375,0.318c-0.293,0.468 -0.152,1.085 0.315,1.378c0.102,0.064 1.924,1.174 5.543,1.774c0.001,0.021 -0.008,0.039 -0.005,0.06c0.169,1.495 1.325,4.32 4.495,4.32c3.093,0 4.266,-2.687 4.477,-4.206c6.214,-0.63 10.939,-2.723 13.792,-6.155c0.353,-0.425 0.295,-1.056 -0.13,-1.408c-0.424,-0.352 -1.055,-0.294 -1.408,0.129zM29.5,52c-1.665,0 -2.233,-1.385 -2.42,-2.121c0.844,0.074 1.751,0.121 2.738,0.121c0.713,0 1.404,-0.022 2.086,-0.055c-0.205,0.751 -0.794,2.055 -2.404,2.055z" fill="url(#color-3)"></path><path d="M52.99,30.333c1.049,-0.606 2.01,-1.66 2.01,-3.333c0,-3.831 -6.1,-7.099 -7.814,-7.941c0.951,-1.845 1.814,-4.285 1.814,-7.059c0,-5.286 -1.725,-6.632 -2.07,-6.848c-0.387,-0.244 -0.889,-0.191 -1.219,0.123l-8.064,7.681c-1.332,-1.163 -2.617,-1.956 -3.647,-1.956c-1.039,0 -1.524,0.563 -1.72,0.899c-0.318,0.543 -0.331,1.235 -0.197,1.931c-1.188,-0.557 -2.708,-1.151 -4.332,-1.507c-0.524,-0.784 -3.441,-5.13 -5.683,-7.946c-0.213,-0.268 -0.553,-0.406 -0.89,-0.371c-0.341,0.037 -0.639,0.246 -0.79,0.553c-2.419,4.925 -2.391,8.925 -2.382,9.186l0.321,2.978c-4.047,0.748 -8.327,2.25 -8.327,5.277c0,1.4 1.517,2.155 3.11,2.562c-1.872,1.288 -4.11,3.278 -4.11,5.438c0,0.582 0.24,1.104 0.676,1.468c0.285,0.237 0.636,0.391 1.006,0.485c-1.57,1.809 -3.682,4.839 -3.682,8.047c0,1.232 0.573,1.787 1.054,2.035c0.506,0.262 1.104,0.266 1.704,0.134c-0.415,1.087 -0.758,2.414 -0.758,3.831c0,3.955 1.962,5 3,5c0.81,0 1.709,-0.377 2.31,-1.316c0.586,0.898 1.403,1.966 2.5,3.033c2.477,2.41 6.915,5.283 13.99,5.283c11.946,0 16.94,-5.35 18.512,-7.599c0.617,0.308 1.512,0.599 2.688,0.599c1.326,0 2.9,-1.63 2.996,-9.254c0.942,-0.389 2.004,-1.23 2.004,-2.746c0,-2.702 -1.827,-6.472 -4.01,-8.667zM46.271,7.504c0.333,0.709 0.729,2.062 0.729,4.496c0,3.717 -1.862,6.832 -2.956,8.342c-1.175,-1.615 -3.032,-4.032 -4.949,-6.004zM20,13.622c0,-0.032 -0.021,-2.902 1.514,-6.688c1.301,1.733 2.688,3.727 3.606,5.071c-0.04,0 -0.08,-0.005 -0.12,-0.005c-2.208,0 -2.768,1.239 -2.906,1.772c-0.195,0.754 0.011,1.603 0.519,2.378c-0.692,0.06 -1.481,0.146 -2.31,0.257zM53.843,40.013c-0.486,0.077 -0.843,0.495 -0.843,0.987c-0.001,3.679 -0.519,7.334 -1.121,7.998c-1.438,-0.034 -2.152,-0.688 -2.172,-0.705c-0.228,-0.228 -0.556,-0.329 -0.871,-0.277c-0.318,0.053 -0.592,0.257 -0.735,0.546c-0.15,0.303 -3.832,7.438 -17.301,7.438c-12.158,0 -15.719,-8.972 -15.864,-9.352c-0.148,-0.395 -0.525,-0.648 -0.936,-0.648c-0.056,0 -0.112,0.005 -0.169,0.015c-0.472,0.08 -0.821,0.485 -0.831,0.964c-0.03,1.49 -0.537,2.021 -0.981,2.021c-0.215,-0.032 -1.019,-0.639 -1.019,-3c0,-2.847 1.794,-5.392 1.812,-5.417c0.284,-0.397 0.24,-0.942 -0.104,-1.288c-0.344,-0.346 -0.887,-0.394 -1.286,-0.111c-0.854,0.604 -2.008,1.11 -2.397,1.08c-0.012,-0.049 -0.025,-0.133 -0.025,-0.264c0,-4.086 4.615,-8.209 4.661,-8.25c0.336,-0.297 0.433,-0.78 0.238,-1.184c-0.195,-0.404 -0.638,-0.636 -1.075,-0.551c-0.741,0.131 -1.665,0.089 -1.824,-0.015c0,-1.784 3.671,-4.211 5.449,-5.106c0.402,-0.202 0.619,-0.648 0.531,-1.089c-0.088,-0.441 -0.459,-0.77 -0.908,-0.802c-1.84,-0.135 -3.829,-0.666 -4.072,-1.003c0,-2.386 7.78,-3.798 13.039,-4.001c0.448,-0.017 0.83,-0.331 0.934,-0.767c0.104,-0.437 -0.095,-0.889 -0.487,-1.106c-1.111,-0.617 -1.538,-1.533 -1.456,-1.852c0.035,-0.136 0.38,-0.274 0.97,-0.274c4.002,0 8.414,2.812 8.458,2.84c0.387,0.25 0.891,0.203 1.227,-0.112c0.334,-0.314 0.412,-0.816 0.188,-1.217c-0.515,-0.919 -0.907,-2.061 -0.877,-2.511c0.002,0 0.003,0 0.005,0c1.53,0 5.957,4.97 9.181,9.573c0.173,0.247 0.448,0.403 0.749,0.424c0.302,0.027 0.595,-0.094 0.801,-0.314c0.066,-0.07 0.69,-0.749 1.443,-1.893c2.72,1.303 6.825,4.048 6.825,6.21c0,1.627 -1.93,1.977 -2.145,2.011c-0.417,0.061 -0.751,0.377 -0.835,0.79c-0.084,0.414 0.101,0.835 0.461,1.054c1.992,1.209 4.519,5.287 4.519,8.145c0,0.787 -1.045,0.993 -1.157,1.013z" fill="url(#color-4)"></path></g></g></svg>