<svg xmlns="http://www.w3.org/2000/svg" xmlns:xlink="http://www.w3.org/1999/xlink" viewBox="0,0,256,256" width="512px" height="512px" fill-rule="nonzero"><defs><linearGradient x1="38.45" y1="22.591" x2="38.45" y2="42.165" gradientUnits="userSpaceOnUse" id="color-1"><stop offset="0" stop-color="#6dc7ff"></stop><stop offset="1" stop-color="#e6abff"></stop></linearGradient><linearGradient x1="27" y1="22.591" x2="27" y2="42.165" gradientUnits="userSpaceOnUse" id="color-2"><stop offset="0" stop-color="#6dc7ff"></stop><stop offset="1" stop-color="#e6abff"></stop></linearGradient><linearGradient x1="27" y1="22.591" x2="27" y2="42.165" gradientUnits="userSpaceOnUse" id="color-3"><stop offset="0" stop-color="#6dc7ff"></stop><stop offset="1" stop-color="#e6abff"></stop></linearGradient><linearGradient x1="37.333" y1="22.591" x2="37.333" y2="42.165" gradientUnits="userSpaceOnUse" id="color-4"><stop offset="0" stop-color="#6dc7ff"></stop><stop offset="1" stop-color="#e6abff"></stop></linearGradient><linearGradient x1="42.667" y1="22.591" x2="42.667" y2="42.165" gradientUnits="userSpaceOnUse" id="color-5"><stop offset="0" stop-color="#6dc7ff"></stop><stop offset="1" stop-color="#e6abff"></stop></linearGradient><linearGradient x1="40" y1="22.591" x2="40" y2="42.165" gradientUnits="userSpaceOnUse" id="color-6"><stop offset="0" stop-color="#6dc7ff"></stop><stop offset="1" stop-color="#e6abff"></stop></linearGradient><linearGradient x1="40" y1="22.591" x2="40" y2="42.165" gradientUnits="userSpaceOnUse" id="color-7"><stop offset="0" stop-color="#6dc7ff"></stop><stop offset="1" stop-color="#e6abff"></stop></linearGradient><linearGradient x1="33.216" y1="6.667" x2="33.216" y2="57.694" gradientUnits="userSpaceOnUse" id="color-8"><stop offset="0" stop-color="#1a6dff"></stop><stop offset="1" stop-color="#c822ff"></stop></linearGradient><linearGradient x1="34" y1="6.685" x2="34" y2="57.712" gradientUnits="userSpaceOnUse" id="color-9"><stop offset="0" stop-color="#1a6dff"></stop><stop offset="1" stop-color="#c822ff"></stop></linearGradient></defs><g fill="#341977" fill-rule="nonzero" stroke="none" stroke-width="1" stroke-linecap="butt" stroke-linejoin="miter" stroke-miterlimit="10" stroke-dasharray="" stroke-dashoffset="0" font-family="none" font-weight="none" font-size="none" text-anchor="none" style="mix-blend-mode: normal"><path d="M0,256v-256h256v256z" id="bgRectangle"></path></g><g fill="none" fill-rule="nonzero" stroke="none" stroke-width="1" stroke-linecap="butt" stroke-linejoin="miter" stroke-miterlimit="10" stroke-dasharray="" stroke-dashoffset="0" font-family="none" font-weight="none" font-size="none" text-anchor="none" style="mix-blend-mode: normal"><g transform="scale(4,4)"><path d="M48.597,24.708c-0.211,5.102 -4.143,9.266 -8.976,9.266h-10.321l-2.721,3.212h11.808l3.405,3.802l8.528,-5.133z" fill="url(#color-1)"></path><rect x="23" y="26" width="8" height="2" fill="url(#color-2)"></rect><rect x="26" y="23" width="2" height="8" fill="url(#color-3)"></rect><circle cx="37.333" cy="27" r="1.333" fill="url(#color-4)"></circle><circle cx="42.667" cy="27" r="1.333" fill="url(#color-5)"></circle><circle cx="40" cy="24.333" r="1.333" fill="url(#color-6)"></circle><circle cx="40" cy="29.667" r="1.333" fill="url(#color-7)"></circle><path d="M19.851,45.004c-0.747,0 -1.505,-0.178 -2.224,-0.543c-1.951,-0.988 -2.965,-3.019 -2.584,-5.172l2.634,-14.911c0.755,-4.275 4.454,-7.378 8.795,-7.378h14.019c4.341,0 8.04,3.103 8.795,7.378l2.183,12.355l-1.97,0.348l-2.183,-12.355c-0.586,-3.318 -3.457,-5.726 -6.825,-5.726h-14.019c-3.369,0 -6.239,2.408 -6.826,5.726l-2.634,14.911c-0.272,1.537 0.606,2.578 1.519,3.041c0.913,0.461 2.272,0.555 3.352,-0.574l5.386,-5.785c0.189,-0.204 0.453,-0.319 0.731,-0.319h11c0.279,0 0.545,0.116 0.734,0.321l3.84,4.154l-1.469,1.357l-3.543,-3.832h-10.127l-5.099,5.477c-0.96,1.004 -2.206,1.527 -3.485,1.527z" fill="url(#color-8)"></path><g fill="url(#color-9)"><path d="M54.635,28.49l-2.981,-1.681l0.422,2.534l1.575,0.888c1.189,0.673 1.349,1.272 1.349,1.769c0,0.495 -0.16,1.093 -1.346,1.766l-37.302,21.032c-0.681,0.387 -1.133,0.518 -1.794,0.518c-1.288,-0.001 -1.558,-0.971 -1.558,-1.786v-43.06c0,-0.814 0.27,-1.785 1.558,-1.785c0.661,0 1.113,0.131 1.797,0.52l10.28,5.795h4.072l-13.367,-7.536c-0.822,-0.468 -1.61,-0.779 -2.782,-0.779c-2.128,0 -3.558,1.521 -3.558,3.785v43.06c0,2.264 1.43,3.785 3.558,3.785c1.172,0 1.96,-0.312 2.779,-0.777l37.302,-21.031c0.584,-0.332 2.361,-1.34 2.361,-3.507c0,-2.172 -1.779,-3.178 -2.365,-3.51z"></path></g></g></g></svg>